<mxfile host="app.diagrams.net" modified="2023-12-15T07:43:36.949Z" agent="Mozilla/5.0 (Windows NT 10.0; Win64; x64) AppleWebKit/537.36 (KHTML, like Gecko) Chrome/120.0.0.0 Safari/537.36" etag="-ztn08N4WthZ8I-KKiAp" version="22.1.9" type="github">
  <diagram name="Страница — 1" id="UsNUyaRySyaIEpGpcPFi">
    <mxGraphModel dx="1919" dy="1699" grid="1" gridSize="10" guides="1" tooltips="1" connect="1" arrows="1" fold="1" page="1" pageScale="1" pageWidth="827" pageHeight="1169" math="0" shadow="0">
      <root>
        <mxCell id="0" />
        <mxCell id="1" parent="0" />
        <mxCell id="XFVcjsmXol4hiE4HgKOb-13" style="edgeStyle=orthogonalEdgeStyle;rounded=1;orthogonalLoop=1;jettySize=auto;html=1;exitX=0.5;exitY=1;exitDx=0;exitDy=0;entryX=0;entryY=0.5;entryDx=0;entryDy=0;" parent="1" source="XFVcjsmXol4hiE4HgKOb-5" target="XFVcjsmXol4hiE4HgKOb-7" edge="1">
          <mxGeometry relative="1" as="geometry" />
        </mxCell>
        <mxCell id="XFVcjsmXol4hiE4HgKOb-15" style="edgeStyle=orthogonalEdgeStyle;rounded=1;orthogonalLoop=1;jettySize=auto;html=1;exitX=0.5;exitY=0;exitDx=0;exitDy=0;entryX=0;entryY=0.5;entryDx=0;entryDy=0;" parent="1" source="XFVcjsmXol4hiE4HgKOb-5" target="XFVcjsmXol4hiE4HgKOb-9" edge="1">
          <mxGeometry relative="1" as="geometry" />
        </mxCell>
        <mxCell id="XFVcjsmXol4hiE4HgKOb-5" value="Клиент" style="rounded=0;whiteSpace=wrap;html=1;fillColor=#fff2cc;strokeColor=#d6b656;" parent="1" vertex="1">
          <mxGeometry x="10" y="210" width="120" height="60" as="geometry" />
        </mxCell>
        <mxCell id="XFVcjsmXol4hiE4HgKOb-24" style="edgeStyle=orthogonalEdgeStyle;rounded=0;orthogonalLoop=1;jettySize=auto;html=1;exitX=0.5;exitY=0;exitDx=0;exitDy=0;entryX=0.5;entryY=1;entryDx=0;entryDy=0;" parent="1" source="XFVcjsmXol4hiE4HgKOb-6" target="XFVcjsmXol4hiE4HgKOb-10" edge="1">
          <mxGeometry relative="1" as="geometry" />
        </mxCell>
        <mxCell id="XFVcjsmXol4hiE4HgKOb-6" value="БД.Ремонт техники" style="shape=process;whiteSpace=wrap;html=1;backgroundOutline=1;fillColor=#f8cecc;strokeColor=#b85450;" parent="1" vertex="1">
          <mxGeometry x="465" y="170" width="150" height="60" as="geometry" />
        </mxCell>
        <mxCell id="XFVcjsmXol4hiE4HgKOb-17" style="edgeStyle=orthogonalEdgeStyle;rounded=0;orthogonalLoop=1;jettySize=auto;html=1;exitX=0.5;exitY=0;exitDx=0;exitDy=0;entryX=0.5;entryY=1;entryDx=0;entryDy=0;startArrow=classic;startFill=1;" parent="1" source="XFVcjsmXol4hiE4HgKOb-7" target="XFVcjsmXol4hiE4HgKOb-8" edge="1">
          <mxGeometry relative="1" as="geometry" />
        </mxCell>
        <mxCell id="XFVcjsmXol4hiE4HgKOb-31" style="edgeStyle=orthogonalEdgeStyle;rounded=1;orthogonalLoop=1;jettySize=auto;html=1;exitX=1;exitY=0.5;exitDx=0;exitDy=0;entryX=0;entryY=0.75;entryDx=0;entryDy=0;" parent="1" source="XFVcjsmXol4hiE4HgKOb-7" target="XFVcjsmXol4hiE4HgKOb-6" edge="1">
          <mxGeometry relative="1" as="geometry" />
        </mxCell>
        <mxCell id="XFVcjsmXol4hiE4HgKOb-7" value="&lt;p style=&quot;margin:0px;margin-top:4px;text-align:center;&quot;&gt;&lt;b&gt;Process 5&lt;/b&gt;&lt;/p&gt;&lt;hr size=&quot;1&quot;&gt;&lt;div style=&quot;text-align: center; height: 2px;&quot;&gt;Приемка работы&lt;/div&gt;" style="verticalAlign=top;align=left;overflow=fill;fontSize=12;fontFamily=Helvetica;html=1;whiteSpace=wrap;rounded=1;fillColor=#d5e8d4;strokeColor=#82b366;" parent="1" vertex="1">
          <mxGeometry x="190" y="350" width="140" height="70" as="geometry" />
        </mxCell>
        <mxCell id="XFVcjsmXol4hiE4HgKOb-11" style="edgeStyle=orthogonalEdgeStyle;rounded=1;orthogonalLoop=1;jettySize=auto;html=1;exitX=0.5;exitY=0;exitDx=0;exitDy=0;entryX=0.75;entryY=0;entryDx=0;entryDy=0;" parent="1" source="XFVcjsmXol4hiE4HgKOb-8" target="XFVcjsmXol4hiE4HgKOb-5" edge="1">
          <mxGeometry relative="1" as="geometry" />
        </mxCell>
        <mxCell id="YzQxrajEyoY8Yu2UaqtR-6" style="edgeStyle=orthogonalEdgeStyle;rounded=1;orthogonalLoop=1;jettySize=auto;html=1;exitX=1;exitY=0.5;exitDx=0;exitDy=0;entryX=0;entryY=0.5;entryDx=0;entryDy=0;" edge="1" parent="1" source="XFVcjsmXol4hiE4HgKOb-8" target="XFVcjsmXol4hiE4HgKOb-6">
          <mxGeometry relative="1" as="geometry">
            <Array as="points">
              <mxPoint x="370" y="245" />
              <mxPoint x="370" y="200" />
            </Array>
          </mxGeometry>
        </mxCell>
        <mxCell id="XFVcjsmXol4hiE4HgKOb-8" value="&lt;p style=&quot;margin:0px;margin-top:4px;text-align:center;&quot;&gt;&lt;b&gt;Process 4&lt;/b&gt;&lt;/p&gt;&lt;hr size=&quot;1&quot;&gt;&lt;div style=&quot;text-align: center; height: 2px;&quot;&gt;Выполнение ремонта&lt;/div&gt;" style="verticalAlign=top;align=left;overflow=fill;fontSize=12;fontFamily=Helvetica;html=1;whiteSpace=wrap;rounded=1;fillColor=#d5e8d4;strokeColor=#82b366;" parent="1" vertex="1">
          <mxGeometry x="190" y="210" width="140" height="70" as="geometry" />
        </mxCell>
        <mxCell id="XFVcjsmXol4hiE4HgKOb-27" style="edgeStyle=orthogonalEdgeStyle;rounded=1;orthogonalLoop=1;jettySize=auto;html=1;exitX=1;exitY=0.5;exitDx=0;exitDy=0;entryX=0;entryY=0.25;entryDx=0;entryDy=0;strokeColor=none;" parent="1" source="XFVcjsmXol4hiE4HgKOb-9" target="XFVcjsmXol4hiE4HgKOb-6" edge="1">
          <mxGeometry relative="1" as="geometry" />
        </mxCell>
        <mxCell id="XFVcjsmXol4hiE4HgKOb-29" style="edgeStyle=orthogonalEdgeStyle;rounded=1;orthogonalLoop=1;jettySize=auto;html=1;exitX=1;exitY=0.25;exitDx=0;exitDy=0;entryX=0;entryY=0.25;entryDx=0;entryDy=0;" parent="1" source="XFVcjsmXol4hiE4HgKOb-9" target="XFVcjsmXol4hiE4HgKOb-6" edge="1">
          <mxGeometry relative="1" as="geometry">
            <Array as="points">
              <mxPoint x="390" y="-32" />
              <mxPoint x="390" y="185" />
            </Array>
          </mxGeometry>
        </mxCell>
        <mxCell id="XFVcjsmXol4hiE4HgKOb-9" value="&lt;p style=&quot;margin:0px;margin-top:4px;text-align:center;&quot;&gt;&lt;b&gt;Process 2&lt;/b&gt;&lt;/p&gt;&lt;hr size=&quot;1&quot;&gt;&lt;div style=&quot;text-align: center; height: 2px;&quot;&gt;Создание заказа&lt;/div&gt;" style="verticalAlign=top;align=left;overflow=fill;fontSize=12;fontFamily=Helvetica;html=1;whiteSpace=wrap;rounded=1;fillColor=#d5e8d4;strokeColor=#82b366;" parent="1" vertex="1">
          <mxGeometry x="190" y="-50" width="140" height="70" as="geometry" />
        </mxCell>
        <mxCell id="XFVcjsmXol4hiE4HgKOb-25" style="edgeStyle=orthogonalEdgeStyle;rounded=0;orthogonalLoop=1;jettySize=auto;html=1;exitX=0.5;exitY=1;exitDx=0;exitDy=0;entryX=0.5;entryY=0;entryDx=0;entryDy=0;" parent="1" source="XFVcjsmXol4hiE4HgKOb-10" target="XFVcjsmXol4hiE4HgKOb-6" edge="1">
          <mxGeometry relative="1" as="geometry" />
        </mxCell>
        <mxCell id="XFVcjsmXol4hiE4HgKOb-10" value="&lt;p style=&quot;margin:0px;margin-top:4px;text-align:center;&quot;&gt;&lt;b&gt;Process 1&lt;/b&gt;&lt;/p&gt;&lt;hr size=&quot;1&quot;&gt;&lt;div style=&quot;text-align: center; height: 2px;&quot;&gt;Администрирование услуг&lt;/div&gt;" style="verticalAlign=top;align=left;overflow=fill;fontSize=12;fontFamily=Helvetica;html=1;whiteSpace=wrap;rounded=1;fillColor=#d5e8d4;strokeColor=#82b366;" parent="1" vertex="1">
          <mxGeometry x="470" width="140" height="70" as="geometry" />
        </mxCell>
        <mxCell id="XFVcjsmXol4hiE4HgKOb-12" value="Уведомление клиента" style="text;html=1;align=center;verticalAlign=middle;resizable=0;points=[];autosize=1;strokeColor=none;fillColor=none;" parent="1" vertex="1">
          <mxGeometry x="90" y="160" width="150" height="30" as="geometry" />
        </mxCell>
        <mxCell id="XFVcjsmXol4hiE4HgKOb-14" value="Оплата &lt;br&gt;работы" style="text;html=1;align=center;verticalAlign=middle;resizable=0;points=[];autosize=1;strokeColor=none;fillColor=none;" parent="1" vertex="1">
          <mxGeometry x="15" y="315" width="60" height="40" as="geometry" />
        </mxCell>
        <mxCell id="XFVcjsmXol4hiE4HgKOb-16" value="Список &lt;br&gt;проблем &lt;br&gt;устройства" style="text;html=1;align=center;verticalAlign=middle;resizable=0;points=[];autosize=1;strokeColor=none;fillColor=none;" parent="1" vertex="1">
          <mxGeometry x="-10" y="60" width="90" height="60" as="geometry" />
        </mxCell>
        <mxCell id="XFVcjsmXol4hiE4HgKOb-18" value="Работа &lt;br&gt;не принята" style="text;html=1;align=center;verticalAlign=middle;resizable=0;points=[];autosize=1;strokeColor=none;fillColor=none;" parent="1" vertex="1">
          <mxGeometry x="250" y="300" width="90" height="40" as="geometry" />
        </mxCell>
        <mxCell id="YzQxrajEyoY8Yu2UaqtR-1" style="edgeStyle=orthogonalEdgeStyle;rounded=0;orthogonalLoop=1;jettySize=auto;html=1;exitX=0.75;exitY=1;exitDx=0;exitDy=0;entryX=0.75;entryY=0;entryDx=0;entryDy=0;" edge="1" parent="1" source="XFVcjsmXol4hiE4HgKOb-19" target="XFVcjsmXol4hiE4HgKOb-8">
          <mxGeometry relative="1" as="geometry" />
        </mxCell>
        <mxCell id="YzQxrajEyoY8Yu2UaqtR-5" style="edgeStyle=orthogonalEdgeStyle;rounded=1;orthogonalLoop=1;jettySize=auto;html=1;exitX=1;exitY=0.5;exitDx=0;exitDy=0;entryX=0;entryY=0.5;entryDx=0;entryDy=0;" edge="1" parent="1" source="XFVcjsmXol4hiE4HgKOb-19" target="XFVcjsmXol4hiE4HgKOb-6">
          <mxGeometry relative="1" as="geometry">
            <Array as="points">
              <mxPoint x="380" y="100" />
              <mxPoint x="380" y="200" />
            </Array>
          </mxGeometry>
        </mxCell>
        <mxCell id="XFVcjsmXol4hiE4HgKOb-19" value="&lt;p style=&quot;margin:0px;margin-top:4px;text-align:center;&quot;&gt;&lt;b&gt;Process 3&lt;/b&gt;&lt;/p&gt;&lt;hr size=&quot;1&quot;&gt;&lt;div style=&quot;text-align: center; height: 2px;&quot;&gt;Выполнение диагностики&lt;/div&gt;" style="verticalAlign=top;align=left;overflow=fill;fontSize=12;fontFamily=Helvetica;html=1;whiteSpace=wrap;rounded=1;fillColor=#d5e8d4;strokeColor=#82b366;" parent="1" vertex="1">
          <mxGeometry x="190" y="60" width="140" height="80" as="geometry" />
        </mxCell>
        <mxCell id="XFVcjsmXol4hiE4HgKOb-21" style="edgeStyle=orthogonalEdgeStyle;rounded=1;orthogonalLoop=1;jettySize=auto;html=1;exitX=0;exitY=0.5;exitDx=0;exitDy=0;startArrow=classic;startFill=1;" parent="1" source="XFVcjsmXol4hiE4HgKOb-19" edge="1">
          <mxGeometry relative="1" as="geometry">
            <mxPoint x="86" y="210" as="targetPoint" />
          </mxGeometry>
        </mxCell>
        <mxCell id="XFVcjsmXol4hiE4HgKOb-22" value="Уведомление&amp;nbsp;&lt;br&gt;клиента" style="text;html=1;align=center;verticalAlign=middle;resizable=0;points=[];autosize=1;strokeColor=none;fillColor=none;" parent="1" vertex="1">
          <mxGeometry x="90" y="60" width="100" height="40" as="geometry" />
        </mxCell>
        <mxCell id="XFVcjsmXol4hiE4HgKOb-23" style="edgeStyle=orthogonalEdgeStyle;rounded=0;orthogonalLoop=1;jettySize=auto;html=1;exitX=0.5;exitY=1;exitDx=0;exitDy=0;" parent="1" source="XFVcjsmXol4hiE4HgKOb-6" target="XFVcjsmXol4hiE4HgKOb-6" edge="1">
          <mxGeometry relative="1" as="geometry" />
        </mxCell>
        <mxCell id="XFVcjsmXol4hiE4HgKOb-26" value="Список &lt;br&gt;оказываемых &lt;br&gt;услуг" style="text;html=1;align=center;verticalAlign=middle;resizable=0;points=[];autosize=1;strokeColor=none;fillColor=none;" parent="1" vertex="1">
          <mxGeometry x="530" y="90" width="100" height="60" as="geometry" />
        </mxCell>
        <mxCell id="XFVcjsmXol4hiE4HgKOb-30" value="Заключение&lt;br&gt;договора" style="text;html=1;align=center;verticalAlign=middle;resizable=0;points=[];autosize=1;strokeColor=none;fillColor=none;" parent="1" vertex="1">
          <mxGeometry x="380" y="90" width="90" height="40" as="geometry" />
        </mxCell>
        <mxCell id="XFVcjsmXol4hiE4HgKOb-32" value="Работа&lt;br&gt;принята" style="text;html=1;align=center;verticalAlign=middle;resizable=0;points=[];autosize=1;strokeColor=none;fillColor=none;" parent="1" vertex="1">
          <mxGeometry x="390" y="275" width="70" height="40" as="geometry" />
        </mxCell>
        <mxCell id="YzQxrajEyoY8Yu2UaqtR-2" value="Передача &lt;br&gt;в ремонт" style="text;html=1;align=center;verticalAlign=middle;resizable=0;points=[];autosize=1;strokeColor=none;fillColor=none;" vertex="1" parent="1">
          <mxGeometry x="290" y="155" width="80" height="40" as="geometry" />
        </mxCell>
        <mxCell id="YzQxrajEyoY8Yu2UaqtR-3" style="edgeStyle=orthogonalEdgeStyle;rounded=0;orthogonalLoop=1;jettySize=auto;html=1;exitX=0.75;exitY=1;exitDx=0;exitDy=0;entryX=0.75;entryY=0;entryDx=0;entryDy=0;" edge="1" parent="1" source="XFVcjsmXol4hiE4HgKOb-9" target="XFVcjsmXol4hiE4HgKOb-19">
          <mxGeometry relative="1" as="geometry" />
        </mxCell>
        <mxCell id="YzQxrajEyoY8Yu2UaqtR-4" value="Передача &lt;br&gt;на диагностику&amp;nbsp;" style="text;html=1;align=center;verticalAlign=middle;resizable=0;points=[];autosize=1;strokeColor=none;fillColor=none;" vertex="1" parent="1">
          <mxGeometry x="190" y="20" width="110" height="40" as="geometry" />
        </mxCell>
      </root>
    </mxGraphModel>
  </diagram>
</mxfile>
